<svg height="512" viewBox="0 0 256 256" width="512" xmlns="http://www.w3.org/2000/svg"><circle cx="93.249" cy="77.211" fill="#8852a8" r="34.751"/><path d="m93.249 42.459a35.157 35.157 0 0 1 4.5.3 34.744 34.744 0 0 0 0 68.9 35.158 35.158 0 0 1 -4.5.3 34.752 34.752 0 1 1 0-69.5z" fill="#a670c6"/><circle cx="162.751" cy="77.211" fill="#8852a8" r="34.751"/><path d="m162.751 42.459a35.157 35.157 0 0 0 -4.5.3 34.744 34.744 0 0 1 0 68.9 35.158 35.158 0 0 0 4.5.3 34.752 34.752 0 1 0 0-69.5z" fill="#6a348a"/><path d="m128 98.068a2 2 0 0 1 -1.941-1.526c-.127-.519-12.246-52.244 24.064-79.244a2 2 0 0 1 2.387 3.21c-34.166 25.404-22.687 74.592-22.567 75.092a2 2 0 0 1 -1.943 2.468z" fill="#690589"/><path d="m174.627 33.805a5.849 5.849 0 0 1 -2.117-.4l-46.629-18.084a5.858 5.858 0 1 1 4.238-10.921l46.629 18.086a5.859 5.859 0 0 1 -2.121 11.321z" fill="#7bac51"/><path d="m162.751 113.962a36.752 36.752 0 1 1 36.749-36.751 36.793 36.793 0 0 1 -36.749 36.751zm0-69.5a32.752 32.752 0 1 0 32.749 32.749 32.789 32.789 0 0 0 -32.749-32.752z" fill="#690589"/><path d="m93.249 113.962a36.752 36.752 0 1 1 36.751-36.751 36.793 36.793 0 0 1 -36.751 36.751zm0-69.5a32.752 32.752 0 1 0 32.751 32.749 32.789 32.789 0 0 0 -32.751-32.752z" fill="#690589"/><path d="m174.627 35.805a7.821 7.821 0 0 1 -2.84-.534l-46.629-18.085a7.858 7.858 0 0 1 5.684-14.653l46.629 18.086a7.858 7.858 0 0 1 4.484 10.169 7.908 7.908 0 0 1 -7.328 5.017zm-46.622-29.805a3.859 3.859 0 0 0 -1.4 7.456l46.629 18.085a3.835 3.835 0 0 0 1.394.263 3.885 3.885 0 0 0 3.6-2.464 3.857 3.857 0 0 0 -2.2-4.992l-46.628-18.085a3.83 3.83 0 0 0 -1.395-.263z" fill="#690589"/><g fill="#8852a8"><path d="m58.497 96.179h139.006l-69.503 121.07z"/><circle cx="128" cy="217.249" r="34.751" transform="matrix(.924 -.383 .383 .924 -73.394 65.521)"/><circle cx="58.497" cy="96.179" r="34.751" transform="matrix(.23 -.973 .973 .23 -48.549 131.014)"/><circle cx="128" cy="96.179" r="34.751" transform="matrix(.16 -.987 .987 .16 12.56 207.12)"/><circle cx="93.249" cy="156.714" r="34.751" transform="matrix(.23 -.973 .973 .23 -80.697 211.462)"/><circle cx="162.751" cy="156.714" r="34.751" transform="matrix(.707 -.707 .707 .707 -63.145 160.983)"/><circle cx="197.503" cy="96.179" r="34.751" transform="matrix(.707 -.707 .707 .707 -10.162 167.826)"/></g><path d="m197.5 61.428a35.158 35.158 0 0 0 -4.5.3 34.744 34.744 0 0 1 0 68.9 35.158 35.158 0 0 0 4.5.3 34.751 34.751 0 0 0 0-69.5z" fill="#6a348a"/><path d="m162.751 121.962a34.977 34.977 0 0 0 -4.5.3 34.744 34.744 0 0 1 0 68.9 35.158 35.158 0 0 0 4.5.3 34.752 34.752 0 1 0 0-69.5z" fill="#6a348a"/><path d="m128 182.5a34.977 34.977 0 0 0 -4.5.3 34.743 34.743 0 0 1 0 68.9 34.748 34.748 0 1 0 4.5-69.2z" fill="#6a348a"/><path d="m58.5 61.428a35.158 35.158 0 0 1 4.5.3 34.744 34.744 0 0 0 0 68.9 35.158 35.158 0 0 1 -4.5.3 34.751 34.751 0 0 1 0-69.5z" fill="#a670c6"/><path d="m93.249 121.962a34.977 34.977 0 0 1 4.5.3 34.744 34.744 0 0 0 0 68.9 35.158 35.158 0 0 1 -4.5.3 34.752 34.752 0 1 1 0-69.5z" fill="#a670c6"/><path d="m128 182.5a34.977 34.977 0 0 1 4.5.3 34.743 34.743 0 0 0 0 68.9 34.748 34.748 0 1 1 -4.5-69.2z" fill="#a670c6"/><path d="m128 61.428a35.158 35.158 0 0 0 -4.5.3 34.744 34.744 0 0 1 0 68.9 35.158 35.158 0 0 0 4.5.3 34.751 34.751 0 0 0 0-69.5z" fill="#6a348a"/><path d="m128 61.428a35.158 35.158 0 0 1 4.5.3 34.744 34.744 0 0 0 0 68.9 35.158 35.158 0 0 1 -4.5.3 34.751 34.751 0 0 1 0-69.5z" fill="#a670c6"/><path d="m197.5 132.931a36.752 36.752 0 1 1 36.751-36.752 36.794 36.794 0 0 1 -36.751 36.752zm0-69.5a32.752 32.752 0 1 0 32.751 32.751 32.789 32.789 0 0 0 -32.751-32.754z" fill="#690589"/><path d="m162.751 193.465a36.752 36.752 0 1 1 36.749-36.751 36.793 36.793 0 0 1 -36.749 36.751zm0-69.5a32.752 32.752 0 1 0 32.749 32.749 32.789 32.789 0 0 0 -32.749-32.752z" fill="#690589"/><path d="m58.5 132.931a36.752 36.752 0 1 1 36.749-36.752 36.793 36.793 0 0 1 -36.749 36.752zm0-69.5a32.752 32.752 0 1 0 32.749 32.748 32.788 32.788 0 0 0 -32.749-32.751z" fill="#690589"/><path d="m33.487 98.672a2 2 0 0 1 -2-2 37.4 37.4 0 0 1 2.198-12.672 2 2 0 0 1 3.764 1.352 33.429 33.429 0 0 0 -1.962 11.324 2 2 0 0 1 -2 1.996z" fill="#690589"/><path d="m93.249 193.465a36.752 36.752 0 1 1 36.751-36.751 36.793 36.793 0 0 1 -36.751 36.751zm0-69.5a32.752 32.752 0 1 0 32.751 32.749 32.789 32.789 0 0 0 -32.751-32.752z" fill="#690589"/><path d="m128 254a36.752 36.752 0 1 1 36.751-36.751 36.793 36.793 0 0 1 -36.751 36.751zm0-69.5a32.752 32.752 0 1 0 32.751 32.752 32.788 32.788 0 0 0 -32.751-32.752z" fill="#690589"/><path d="m128 132.931a36.752 36.752 0 1 1 36.751-36.752 36.793 36.793 0 0 1 -36.751 36.752zm0-69.5a32.752 32.752 0 1 0 32.751 32.751 32.788 32.788 0 0 0 -32.751-32.754z" fill="#690589"/></svg>