<?xml version="1.0" encoding="UTF-8"?>
<svg xmlns="http://www.w3.org/2000/svg" xmlns:xlink="http://www.w3.org/1999/xlink" width="92.13pt" height="92.13pt" viewBox="0 0 92.13 92.13" version="1.1">
<defs>
<clipPath id="clip1">
  <path d="M 0 0 L 92.128906 0 L 92.128906 92.128906 L 0 92.128906 Z M 0 0 "/>
</clipPath>
</defs>
<g id="surface1">
<g clip-path="url(#clip1)" clip-rule="nonzero">
<path style="fill:none;stroke-width:2.98883;stroke-linecap:butt;stroke-linejoin:miter;stroke:rgb(0%,0%,0%);stroke-opacity:1;stroke-miterlimit:10;" d="M 35.433594 30.47375 L 24.804688 51.731562 L 46.0625 51.731562 L 56.695312 30.47375 L 46.0625 9.212031 " transform="matrix(1,0,0,-1,0,92.13)"/>
</g>
<path style="fill:none;stroke-width:2.98883;stroke-linecap:butt;stroke-linejoin:miter;stroke:rgb(0%,0%,0%);stroke-opacity:1;stroke-miterlimit:10;" d="M 46.0625 51.731562 L 67.324219 51.731562 " transform="matrix(1,0,0,-1,0,92.13)"/>
<path style="fill:none;stroke-width:2.98883;stroke-linecap:butt;stroke-linejoin:miter;stroke:rgb(0%,0%,0%);stroke-opacity:1;stroke-miterlimit:10;" d="M 46.0625 51.731562 L 46.0625 80.079219 L 67.324219 80.079219 " transform="matrix(1,0,0,-1,0,92.13)"/>
<path style=" stroke:none;fill-rule:nonzero;fill:rgb(54.116821%,16.862488%,88.627625%);fill-opacity:1;" d="M 33.308594 40.398438 C 33.308594 35.699219 29.5 31.894531 24.804688 31.894531 C 20.105469 31.894531 16.300781 35.699219 16.300781 40.398438 C 16.300781 45.09375 20.105469 48.902344 24.804688 48.902344 C 29.5 48.902344 33.308594 45.09375 33.308594 40.398438 Z M 54.566406 40.398438 C 54.566406 35.699219 50.761719 31.894531 46.0625 31.894531 C 41.367188 31.894531 37.558594 35.699219 37.558594 40.398438 C 37.558594 45.09375 41.367188 48.902344 46.0625 48.902344 C 50.761719 48.902344 54.566406 45.09375 54.566406 40.398438 Z M 75.828125 40.398438 C 75.828125 35.699219 72.019531 31.894531 67.324219 31.894531 C 62.625 31.894531 58.820312 35.699219 58.820312 40.398438 C 58.820312 45.09375 62.625 48.902344 67.324219 48.902344 C 72.019531 48.902344 75.828125 45.09375 75.828125 40.398438 Z M 43.9375 61.65625 C 43.9375 56.960938 40.128906 53.152344 35.433594 53.152344 C 30.738281 53.152344 26.929688 56.960938 26.929688 61.65625 C 26.929688 66.355469 30.738281 70.160156 35.433594 70.160156 C 40.128906 70.160156 43.9375 66.355469 43.9375 61.65625 Z M 65.199219 61.65625 C 65.199219 56.960938 61.390625 53.152344 56.695312 53.152344 C 51.996094 53.152344 48.191406 56.960938 48.191406 61.65625 C 48.191406 66.355469 51.996094 70.160156 56.695312 70.160156 C 61.390625 70.160156 65.199219 66.355469 65.199219 61.65625 Z M 54.566406 82.917969 C 54.566406 78.21875 50.761719 74.414062 46.0625 74.414062 C 41.367188 74.414062 37.558594 78.21875 37.558594 82.917969 C 37.558594 87.613281 41.367188 91.421875 46.0625 91.421875 C 50.761719 91.421875 54.566406 87.613281 54.566406 82.917969 Z M 54.566406 82.917969 "/>
<path style=" stroke:none;fill-rule:nonzero;fill:rgb(26.667786%,79.998779%,6.666565%);fill-opacity:1;" d="M 50.316406 12.050781 L 67.324219 23.390625 L 84.332031 12.050781 L 67.324219 0.710938 Z M 50.316406 12.050781 "/>
</g>
</svg>
